<?xml version="1.0" encoding="UTF-8"?>
<svg rx="8" ry="8" width="320" height="160" xmlns="http://www.w3.org/2000/svg" xmlns:xlink="http://www.w3.org/1999/xlink" version="1.1" baseProfile="full" viewBox="0 0 320 160">
<rect width="320" height="160" x="0" y="0" fill="#F4F7FB"></rect>
<path d="M160 33.6A49.6 49.6 0 0 1 172.3 131.2L168 114.2A32 32 0 0 0 160 51.2Z" fill="#2F7FF7" ecmeta_series_index="0" ecmeta_data_index="0" ecmeta_ssr_type="chart" class="zr27-cls-104"></path>
<path d="M170.6 124.6A42.7 42.7 0 0 1 117.4 85.9L128.1 85.2A32 32 0 0 0 168 114.2Z" fill="#0EA5E9" ecmeta_series_index="0" ecmeta_data_index="1" ecmeta_ssr_type="chart" class="zr27-cls-105"></path>
<path d="M122 85.6A38.1 38.1 0 0 1 137.6 52.4L141.2 57.3A32 32 0 0 0 128.1 85.2Z" fill="#16A34A" ecmeta_series_index="0" ecmeta_data_index="2" ecmeta_ssr_type="chart" class="zr27-cls-106"></path>
<path d="M138.9 54.2A35.8 35.8 0 0 1 160 47.4L160 51.2A32 32 0 0 0 141.2 57.3Z" fill="#D97706" ecmeta_series_index="0" ecmeta_data_index="3" ecmeta_ssr_type="chart" class="zr27-cls-107"></path>
<style ><![CDATA[
.zr27-cls-104:hover {
cursor:pointer;
fill:rgba(51,139,255,1);
}
.zr27-cls-105:hover {
cursor:pointer;
fill:rgba(15,181,255,1);
}
.zr27-cls-106:hover {
cursor:pointer;
fill:rgba(24,179,81,1);
}
.zr27-cls-107:hover {
cursor:pointer;
fill:rgba(238,130,6,1);
}

]]>

</style>
</svg>