<?xml version="1.0" encoding="UTF-8"?>
<svg rx="8" ry="8" width="320" height="160" xmlns="http://www.w3.org/2000/svg" xmlns:xlink="http://www.w3.org/1999/xlink" version="1.1" baseProfile="full" viewBox="0 0 320 160">
<rect width="320" height="160" x="0" y="0" fill="#F4F7FB"></rect>
<path d="M12 148.5L308 148.5" fill="none" pointer-events="visible" stroke="rgb(228,231,237)" stroke-opacity="0.9" stroke-dasharray="4,2" class="zr11-cls-49"></path>
<path d="M12 126.5L308 126.5" fill="none" pointer-events="visible" stroke="rgb(228,231,237)" stroke-opacity="0.9" stroke-dasharray="4,2" class="zr11-cls-49"></path>
<path d="M12 104.5L308 104.5" fill="none" pointer-events="visible" stroke="rgb(228,231,237)" stroke-opacity="0.9" stroke-dasharray="4,2" class="zr11-cls-49"></path>
<path d="M12 82.5L308 82.5" fill="none" pointer-events="visible" stroke="rgb(228,231,237)" stroke-opacity="0.9" stroke-dasharray="4,2" class="zr11-cls-49"></path>
<path d="M12 60.5L308 60.5" fill="none" pointer-events="visible" stroke="rgb(228,231,237)" stroke-opacity="0.9" stroke-dasharray="4,2" class="zr11-cls-49"></path>
<path d="M12 38.5L308 38.5" fill="none" pointer-events="visible" stroke="rgb(228,231,237)" stroke-opacity="0.9" stroke-dasharray="4,2" class="zr11-cls-49"></path>
<path d="M12 16.5L308 16.5" fill="none" pointer-events="visible" stroke="rgb(228,231,237)" stroke-opacity="0.9" stroke-dasharray="4,2" class="zr11-cls-49"></path>
<path d="M12 148.5L308 148.5" fill="none" pointer-events="visible" stroke="#6E7079" stroke-linecap="round" class="zr11-cls-49"></path>
<path d="M20.8 148l13.8 0l0 -60.1l-13.8 0Z" fill="#2F7FF7" ecmeta_series_index="0" ecmeta_data_index="0" ecmeta_ssr_type="chart" class="zr11-cls-50"></path>
<path d="M70.1 148l13.8 0l0 -68.3l-13.8 0Z" fill="#2F7FF7" ecmeta_series_index="0" ecmeta_data_index="1" ecmeta_ssr_type="chart" class="zr11-cls-50"></path>
<path d="M119.4 148l13.8 0l0 -66.1l-13.8 0Z" fill="#2F7FF7" ecmeta_series_index="0" ecmeta_data_index="2" ecmeta_ssr_type="chart" class="zr11-cls-50"></path>
<path d="M168.8 148l13.8 0l0 -94.6l-13.8 0Z" fill="#2F7FF7" ecmeta_series_index="0" ecmeta_data_index="3" ecmeta_ssr_type="chart" class="zr11-cls-50"></path>
<path d="M218.1 148l13.8 0l0 -97.5l-13.8 0Z" fill="#2F7FF7" ecmeta_series_index="0" ecmeta_data_index="4" ecmeta_ssr_type="chart" class="zr11-cls-50"></path>
<path d="M267.4 148l13.8 0l0 -111.5l-13.8 0Z" fill="#2F7FF7" ecmeta_series_index="0" ecmeta_data_index="5" ecmeta_ssr_type="chart" class="zr11-cls-50"></path>
<path d="M38.7 148l13.8 0l0 -51.3l-13.8 0Z" fill="#0EA5E9" ecmeta_series_index="1" ecmeta_data_index="0" ecmeta_ssr_type="chart" class="zr11-cls-51"></path>
<path d="M88.1 148l13.8 0l0 -59.4l-13.8 0Z" fill="#0EA5E9" ecmeta_series_index="1" ecmeta_data_index="1" ecmeta_ssr_type="chart" class="zr11-cls-51"></path>
<path d="M137.4 148l13.8 0l0 -57.2l-13.8 0Z" fill="#0EA5E9" ecmeta_series_index="1" ecmeta_data_index="2" ecmeta_ssr_type="chart" class="zr11-cls-51"></path>
<path d="M186.7 148l13.8 0l0 -80.7l-13.8 0Z" fill="#0EA5E9" ecmeta_series_index="1" ecmeta_data_index="3" ecmeta_ssr_type="chart" class="zr11-cls-51"></path>
<path d="M236.1 148l13.8 0l0 -86.5l-13.8 0Z" fill="#0EA5E9" ecmeta_series_index="1" ecmeta_data_index="4" ecmeta_ssr_type="chart" class="zr11-cls-51"></path>
<path d="M285.4 148l13.8 0l0 -99.7l-13.8 0Z" fill="#0EA5E9" ecmeta_series_index="1" ecmeta_data_index="5" ecmeta_ssr_type="chart" class="zr11-cls-51"></path>
<style ><![CDATA[
.zr11-cls-49:hover {
pointer-events:none;
}
.zr11-cls-50:hover {
cursor:pointer;
fill:rgba(51,139,255,1);
}
.zr11-cls-51:hover {
cursor:pointer;
fill:rgba(15,181,255,1);
}

]]>

</style>
</svg>